<svg xmlns="http://www.w3.org/2000/svg" viewBox="0 0 72 72"><defs><filter id="s" x="-20%" y="-20%" width="140%" height="140%"><feDropShadow dx="0" dy="2" stdDeviation="1.7" flood-color="#2d2117" flood-opacity=".52"/></filter></defs><g filter="url(#s)" stroke="#463321" stroke-linejoin="round"><ellipse cx="36" cy="63" rx="24" ry="4" fill="#675238" opacity=".25" stroke="none"/><path d="M11 53V35h50v18z" fill="#c2a574" stroke-width="2.2"/><path d="M12 53V25h12v28M48 53V25h12v28" fill="#cdb07d" stroke-width="2.2"/><path d="M29 53V20h14v33" fill="#d4b684" stroke-width="2.2"/><path d="M28 20h16M11 25h13M48 25h13" stroke-width="3.2"/><path d="M21 36l8-11 8 11zM35 36l8-10 8 10z" fill="#7e4935" stroke-width="2"/><path d="M31 20l5-10 5 10z" fill="#7d2f2a" stroke-width="1.8"/><path d="M36 10V6" stroke-width="1.8"/><path d="M31 53v-9c0-4 10-4 10 0v9" fill="#483422" stroke-width="1.6"/></g></svg>