<svg xmlns="http://www.w3.org/2000/svg" viewBox="0 0 106 78">
<defs><filter id="s" x="-25%" y="-25%" width="150%" height="150%"><feDropShadow dx="0" dy="2.6" stdDeviation="1.8" flood-color="#1d140e" flood-opacity=".52"/></filter></defs>
<g filter="url(#s)" stroke="#3f2e1e" stroke-width="1.6" stroke-linejoin="round">
<ellipse cx="53" cy="67" rx="39" ry="6" fill="#655138" opacity=".22" stroke="none"/>
<!-- keep -->
<path d="M35 23l18-9 18 9-18 10z" fill="#c2a16e"/><path d="M53 33v27L35 51V23z" fill="#9f8155"/><path d="M53 33l18-10v27L53 60z" fill="#876d46"/>
<path d="M34 23v-7h38v7l-19 10z" fill="#b29261"/>
<!-- curtain walls -->
<path d="M13 45l40 20 40-21v12L53 76 13 57z" fill="#a48759"/>
<!-- towers -->
<g transform="translate(4 3)"><path d="M4 38l10-5 10 5-10 6z" fill="#c0a06c"/><path d="M14 44v19L4 58V38z" fill="#987b51"/><path d="M14 44l10-6v19l-10 6z" fill="#816944"/><path d="M3 38v-7h22v7l-11 6z" fill="#ae8e5e"/></g>
<g transform="translate(74 2)"><path d="M4 38l10-5 10 5-10 6z" fill="#c0a06c"/><path d="M14 44v19L4 58V38z" fill="#987b51"/><path d="M14 44l10-6v19l-10 6z" fill="#816944"/><path d="M3 38v-7h22v7l-11 6z" fill="#ae8e5e"/></g>
<path d="M48 63v-10c0-5 10-5 10 0v10" fill="#493522"/>
</g></svg>